<svg xmlns="http://www.w3.org/2000/svg" width="64" height="75" viewBox="0 0 64 75">
    <path fill="#FFF" fill-rule="evenodd" d="M26 44c-3.315 0-6-2.911-6-6.498C20 33.912 22.685 31 26 31c3.312 0 6 2.911 6 6.502C32 41.089 29.312 44 26 44zm3.559-25c.924 2.6 1.187 4.262 3.198 5.095 2.017.836 3.398-.164 5.871-1.34l3.616 3.617c-1.18 2.492-2.175 3.857-1.34 5.871.83 2.008 2.483 2.267 5.096 3.195v5.12c-2.584.919-4.266 1.188-5.098 3.199-.836 2.014.164 3.392 1.342 5.868l-3.616 3.616c-2.502-1.187-3.86-2.175-5.858-1.343-2.024.84-2.29 2.512-3.211 5.102H24.44c-.924-2.6-1.187-4.266-3.198-5.098-2.017-.836-3.395.164-5.871 1.34l-3.616-3.617c1.159-2.442 2.181-3.838 1.34-5.871-.834-2.011-2.512-2.277-5.096-3.195v-5.12c2.587-.92 4.262-1.182 5.095-3.196.836-2.017-.161-3.388-1.34-5.871l3.617-3.616c2.495 1.184 3.857 2.175 5.871 1.34 2.01-.834 2.277-2.509 3.198-5.096h5.118zM-3.32 28.163a31.284 31.284 0 0 0-1.431 9.375c0 17.25 14.003 31.25 31.25 31.25 17.25 0 31.25-14 31.25-31.25 0-17.247-14-31.25-31.25-31.25-6.628 0-12.76 2.087-17.822 5.612L14 18.788H-6.563L-.516 0l5.37 6.947C10.971 2.607 18.433.037 26.5.037c20.697 0 37.5 16.804 37.5 37.5C64 58.234 47.197 75 26.5 75S-11 58.234-11 37.538c0-3.238.412-6.379 1.184-9.375h6.497z" opacity=".3"/>
</svg>
