<svg xmlns="http://www.w3.org/2000/svg" width="59" height="74" viewBox="0 0 59 74">
  <path fill="#fff" fill-rule="evenodd" d="M15.0029446,39.0583559 C12.6597224,31.3633515 14.518336,22.6567971 20.6052471,16.5752284 C27.3364897,9.84405918 37.2687363,8.28910797 45.5016425,11.873021 L35.074658,22.2998918 C33.6741505,23.700384 33.6741505,25.9743263 35.074658,27.3749548 L41.6248557,33.9250811 C43.0253632,35.3255733 45.2993303,35.3255733 46.6999741,33.9250811 L57.1269585,23.4982103 C60.7109107,31.731163 59.1559425,41.6624834 52.4246999,48.3943342 C46.3378843,54.4810834 37.6357339,56.3449527 29.9413272,53.9965755 L1.55763687,82.3799563 C-1.93579284,85.8733479 -7.60203357,85.8733479 -11.0900101,82.3799563 L-13.3799277,80.0900637 C-16.8733574,76.6019888 -16.8733574,70.9359462 -13.3799277,67.4425546 L15.0029446,39.0583559 Z" opacity=".3" transform="translate(0 -10)"/>
</svg>
